<?xml version="1.0" encoding="utf-8"?>
<!-- Generator: Adobe Illustrator 27.5.0, SVG Export Plug-In . SVG Version: 6.00 Build 0)  -->
<svg version="1.1" id="Calque_1" xmlns="http://www.w3.org/2000/svg" xmlns:xlink="http://www.w3.org/1999/xlink" x="0px" y="0px"
	 viewBox="0 0 128.9 128.9" style="enable-background:new 0 0 128.9 128.9;" xml:space="preserve">
<style type="text/css">
	.st0{fill:#E72787;}
	.st1{fill:#009640;}
</style>
<g>
	<path d="M111.4,20.3c-0.5-0.5-0.9-1-1.4-1.4c-0.5-0.5-1-0.9-1.4-1.4C83.4-6.3,43.5-5.8,18.8,18.9c-24.7,24.7-25.1,64.5-1.4,89.8
		c0.5,0.5,0.9,1,1.4,1.4c0.5,0.5,1,0.9,1.4,1.4c25.3,23.7,65.1,23.3,89.8-1.4C134.7,85.4,135.2,45.5,111.4,20.3z M20.3,105.8
		c-22.2-23.7-21.7-61,1.4-84.1s60.4-23.6,84.1-1.4L20.3,105.8z M23.1,108.6l85.5-85.5c22.2,23.7,21.7,61-1.4,84.1
		S46.8,130.8,23.1,108.6z"/>
	<path class="st0" d="M107.2,107.2c-23.1,23.1-60.4,23.6-84.1,1.4l85.5-85.5C130.8,46.8,130.4,84.1,107.2,107.2z"/>
	<path class="st1" d="M105.8,20.3l-85.5,85.5c-22.2-23.7-21.7-61,1.4-84.1S82.1-1.9,105.8,20.3z"/>
</g>
</svg>
