<?xml version="1.0" encoding="utf-8"?>
<!-- Generator: Adobe Illustrator 27.5.0, SVG Export Plug-In . SVG Version: 6.00 Build 0)  -->
<svg version="1.1" id="Calque_1" xmlns="http://www.w3.org/2000/svg" xmlns:xlink="http://www.w3.org/1999/xlink" x="0px" y="0px"
	 viewBox="0 0 48 48" style="enable-background:new 0 0 48 48;" xml:space="preserve">
<g>
	<path d="M5.1,1.7h8.6c1.9,0,3.4,1.5,3.4,3.4v37.7c0,1.9-1.5,3.4-3.4,3.4H5.1c-1.9,0-3.4-1.5-3.4-3.4V5.1C1.7,3.2,3.2,1.7,5.1,1.7z"
		/>
	<path d="M34.3,1.7h8.6c1.9,0,3.4,1.5,3.4,3.4v37.7c0,1.9-1.5,3.4-3.4,3.4h-8.6c-1.9,0-3.4-1.5-3.4-3.4V5.1
		C30.9,3.2,32.4,1.7,34.3,1.7z"/>
</g>
</svg>
